:SAMPLES-PER-SECOND 30
:FULLY-SPECIFIED
:DEGREES
516
root  -36.7115 40.6026 12.8082 -178.351 -15.1842 173.62
RightUpLeg  -15.2161 -23.2672 -3.11641
RightLeg  18.809 -7.8055 -0.113177
RightFoot  -5.26463 0.260998 -5.58911
RightToes  0.000482159 0.542163 -0.142577
Spine  28.0899 -2.76884 1.93817
Spine1  3.99725 -4.55859 8.62438
HEad  -4.67844 -32.5651 11.5422
LeftShoulder1  9.49975 -14.7155 -45.4554
LeftArm  -13.9739 20.7898 -29.0185
LeftForeArm  28.9321 -31.6405 -5.31465
LeftHand  -0.25398 0.0180481 5.50724
RightShoulder  5.32507 9.26045 35.7432
RightArm  2.07223 -12.3392 29.9286
RightForeArm  -5.78876 27.066 6.12843
RightHand  -0.921871 1.1746 -16.3746
LeftUpLeg  -10.2616 32.9971 -3.25446
LeftLeg  37.54 9.53656 8.14654
LeftFoot  -5.73937 0.287884 -5.1807
LeftToes  1.06248e-005 4.65855e-005 -8.18498e-006
517
root  -35.4202 40.6027 12.5569 -178.3 -18.6385 173.977
RightUpLeg  -13.8294 -20.4904 -2.10903
RightLeg  17.3475 -14.3362 0.231198
RightFoot  -5.51453 0.35047 -7.59622
RightToes  0.000482159 0.542163 -0.142577
Spine  25.8021 -2.79985 1.79669
Spine1  4.48535 -4.93622 9.62484
HEad  -4.92297 -33.1503 11.5763
LeftShoulder1  9.47909 -14.6154 -45.6129
LeftArm  -14.6879 20.5466 -29.3598
LeftForeArm  29.8956 -35.0742 -6.11622
LeftHand  -0.25398 0.0180481 5.50724
RightShoulder  5.19215 9.01593 35.5017
RightArm  3.26142 -14.2871 30.6441
RightForeArm  -4.56424 27.2708 6.11495
RightHand  -0.747246 0.381305 -15.0678
LeftUpLeg  -7.75447 35.5302 -5.81582
LeftLeg  38.5217 9.41376 8.31569
LeftFoot  -6.36493 0.322958 -6.55379
LeftToes  1.06248e-005 4.65855e-005 -8.18498e-006
518
root  -34.1087 40.5163 12.3308 -178.151 -22.6344 174.293
RightUpLeg  -13.0599 -18.4662 -0.834565
RightLeg  16.11 -20.5535 0.595448
RightFoot  -5.79897 0.404093 -9.12945
RightToes  0.000482159 0.542163 -0.142577
Spine  23.7355 -3.03415 1.18769
Spine1  4.68308 -5.64946 10.8083
HEad  -5.51516 -32.9634 11.8435
LeftShoulder1  9.4637 -14.5345 -45.7477
LeftArm  -14.8506 20.2689 -29.0692
LeftForeArm  31.3954 -38.5759 -6.97672
LeftHand  -0.25398 0.0180481 5.50724
RightShoulder  5.09138 8.82241 35.3386
RightArm  4.43749 -15.8783 31.3219
RightForeArm  -3.7108 26.9625 5.99839
RightHand  -0.626735 -0.149593 -13.8723
LeftUpLeg  -4.6741 37.9034 -7.59388
LeftLeg  38.2171 9.13264 8.00106
LeftFoot  -6.74444 0.361125 -7.99086
LeftToes  1.06248e-005 4.65855e-005 -8.18498e-006
519
root  -32.7622 40.3117 12.1472 -178.012 -27.3139 175.062
RightUpLeg  -13.1875 -16.8105 1.04627
RightLeg  15.4101 -26.9504 0.839184
RightFoot  -6.36781 0.429101 -10.847
RightToes  0.000482159 0.542163 -0.142577
Spine  21.8727 -3.61463 0.897204
Spine1  4.49676 -6.63012 12.064
HEad  -6.5373 -32.0273 12.4859
LeftShoulder1  9.44177 -14.4821 -45.7757
LeftArm  -14.8572 19.7421 -28.4505
LeftForeArm  33.2059 -41.6174 -7.76444
LeftHand  -0.25398 0.0180481 5.50724
RightShoulder  5.0288 8.68013 35.3077
RightArm  4.82827 -17.3625 31.9694
RightForeArm  -2.99786 26.4485 5.84134
RightHand  -0.520014 -0.739081 -12.8909
LeftUpLeg  -1.52928 39.272 -8.0881
LeftLeg  36.9466 6.87735 5.89598
LeftFoot  -6.19676 0.52254 -10.67
LeftToes  1.06248e-005 4.65855e-005 -8.18498e-006
520
root  -31.3349 40.0203 11.9949 -178.011 -32.5195 176.064
RightUpLeg  -14.0625 -15.3366 3.20869
RightLeg  15.1846 -33.5432 0.863833
RightFoot  -7.01743 0.45401 -13.1902
RightToes  0.000482159 0.542163 -0.142577
Spine  20.2969 -4.25261 0.489033
Spine1  4.23311 -7.71378 13.566
HEad  -8.00098 -30.5669 13.4333
LeftShoulder1  9.3835 -14.4312 -45.6168
LeftArm  -14.7785 18.6012 -27.7891
LeftForeArm  34.8842 -43.7778 -8.34896
LeftHand  -0.25398 0.0180481 5.50724
RightShoulder  4.9852 8.55676 35.3672
RightArm  4.2424 -18.7693 32.6224
RightForeArm  -2.76108 25.9588 5.7157
RightHand  -0.413691 -1.56977 -12.3362
LeftUpLeg  1.72033 39.4396 -7.52735
LeftLeg  34.2076 3.03938 2.60144
LeftFoot  -4.79519 0.834331 -14.0824
LeftToes  1.06248e-005 4.65855e-005 -8.18498e-006
